<svg xmlns="http://www.w3.org/2000/svg" width="100" height="100" viewBox="0 0 100 100">
  <defs>
    <pattern id="moroccanPattern" patternUnits="userSpaceOnUse" width="50" height="50">
      <path d="M0 0h50v50H0z" fill="none"/>
      <!-- Moroccan Star Pattern -->
      <path d="M25 0L30 20L50 25L30 30L25 50L20 30L0 25L20 20z" stroke="#DFB05A" stroke-width="0.5" fill="none"/>
      <path d="M25 10L28 20L38 25L28 30L25 40L22 30L12 25L22 20z" stroke="#DFB05A" stroke-width="0.5" fill="none"/>
      
      <!-- Connecting Lines -->
      <path d="M0 0L10 10M40 10L50 0M0 50L10 40M40 40L50 50" stroke="#DFB05A" stroke-width="0.3" fill="none"/>
      
      <!-- Decorative Circles -->
      <circle cx="25" cy="25" r="2" stroke="#DFB05A" stroke-width="0.3" fill="none"/>
      <circle cx="25" cy="25" r="5" stroke="#DFB05A" stroke-width="0.3" fill="none"/>
    </pattern>
  </defs>
  <rect width="100" height="100" fill="url(#moroccanPattern)"/>
</svg> 