<svg width="64" height="64" viewBox="0 0 64 64" fill="none" xmlns="http://www.w3.org/2000/svg">
  <!-- Circular background -->
  <circle cx="32" cy="32" r="30" fill="white" stroke="#DBA570" stroke-width="1.5"/>
  
  <!-- Stylized "B" letter -->
  <path d="M28 20H36C38.2091 20 40 21.7909 40 24C40 26.2091 38.2091 28 36 28H28V20Z" stroke="#DBA570" stroke-width="1.5"/>
  <path d="M28 28H38C40.2091 28 42 29.7909 42 32C42 34.2091 40.2091 36 38 36H28V28Z" stroke="#DBA570" stroke-width="1.5"/>
  <path d="M28 36H34C36.2091 36 38 37.7909 38 40C38 42.2091 36.2091 44 34 44H28V36Z" stroke="#DBA570" stroke-width="1.5"/>
  <line x1="28" y1="20" x2="28" y2="44" stroke="#DBA570" stroke-width="1.5"/>
  
  <!-- Decorative elements -->
  <circle cx="32" cy="16" r="2" fill="#DBA570"/>
  <circle cx="32" cy="48" r="2" fill="#DBA570"/>
</svg> 