<svg xmlns="http://www.w3.org/2000/svg" width="100" height="100" viewBox="0 0 100 100">
  <defs>
    <pattern id="moroccanZellige" patternUnits="userSpaceOnUse" width="50" height="50">
      <!-- Zellige Star Base -->
      <path d="M0 0h50v50H0z" fill="none"/>
      
      <!-- 8-point star pattern -->
      <path d="M25 10L30 20L40 25L30 30L25 40L20 30L10 25L20 20z" stroke="#DFB05A" stroke-width="0.8" fill="none"/>
      
      <!-- Inner star decoration -->
      <path d="M25 15L28 20L33 25L28 30L25 35L22 30L17 25L22 20z" stroke="#DFB05A" stroke-width="0.6" fill="none"/>
      
      <!-- Connection points for tiling -->
      <path d="M0 25H10M40 25H50M25 0V10M25 40V50" stroke="#DFB05A" stroke-width="0.4" fill="none"/>
      
      <!-- Corner quarter stars -->
      <path d="M0 0L10 10M0 50L10 40M50 0L40 10M50 50L40 40" stroke="#DFB05A" stroke-width="0.5" fill="none"/>
      
      <!-- Center point -->
      <circle cx="25" cy="25" r="1" stroke="#DFB05A" stroke-width="0.5" fill="#DFB05A"/>
    </pattern>
  </defs>
  <rect width="100" height="100" fill="url(#moroccanZellige)"/>
</svg> 