<svg xmlns="http://www.w3.org/2000/svg" width="100" height="100" viewBox="0 0 100 100">
  <defs>
    <pattern id="moroccanGeometric" patternUnits="userSpaceOnUse" width="40" height="40">
      <!-- Geometric Lattice Base -->
      <path d="M0 0h40v40H0z" fill="none"/>
      <path d="M0 0L40 40M40 0L0 40" stroke="#DFB05A" stroke-width="0.5" fill="none"/>
      <path d="M20 0L20 40M0 20L40 20" stroke="#DFB05A" stroke-width="0.5" fill="none"/>
      
      <!-- Diamond Shapes -->
      <path d="M10 10L20 20L10 30L0 20z" stroke="#DFB05A" stroke-width="0.7" fill="none"/>
      <path d="M30 10L40 20L30 30L20 20z" stroke="#DFB05A" stroke-width="0.7" fill="none"/>
      <path d="M10 10L20 0L30 10L20 20z" stroke="#DFB05A" stroke-width="0.7" fill="none"/>
      <path d="M10 30L20 40L30 30L20 20z" stroke="#DFB05A" stroke-width="0.7" fill="none"/>
      
      <!-- Center Decoration -->
      <circle cx="20" cy="20" r="3" stroke="#DFB05A" stroke-width="0.5" fill="none"/>
    </pattern>
  </defs>
  <rect width="100" height="100" fill="url(#moroccanGeometric)"/>
</svg> 